<?xml version="1.0" encoding="UTF-8"?>
<svg id="Layer_1" xmlns="http://www.w3.org/2000/svg" version="1.1" viewBox="0 0 250 250">
  <!-- Generator: Adobe Illustrator 29.1.0, SVG Export Plug-In . SVG Version: 2.1.0 Build 142)  -->
  <defs>
    <style>
      .st0 {
        fill: #41550a;
      }
    </style>
  </defs>
  <path class="st0" d="M58.1,41.8c27.2,20.4,56.3,61.6,67,83.8,10.7-22.1,39.9-63.5,67-83.8,19.6-14.7,51.3-26.1,51.3,10.1s-4.1,60.7-6.6,69.4c-8.4,30.2-39.3,37.9-66.6,33.2,47.8,8.1,60,35.1,33.8,62.2-50,51.3-71.8-12.9-77.4-29.3-1-3-1.5-4.4-1.5-3.2,0-1.2-.5.2-1.5,3.2-5.6,16.4-27.4,80.5-77.4,29.3-26.3-27-14.2-53.9,33.8-62.2-27.4,4.6-58.2-3-66.6-33.2-2.5-8.7-6.6-62.2-6.6-69.4,0-36.2,31.7-24.8,51.3-10.1h.1Z"/>
</svg>