<?xml version="1.0" encoding="UTF-8"?>
<svg id="Layer_1" xmlns="http://www.w3.org/2000/svg" version="1.1" viewBox="0 0 250 250">
  <!-- Generator: Adobe Illustrator 29.1.0, SVG Export Plug-In . SVG Version: 2.1.0 Build 142)  -->
  <defs>
    <style>
      .st0 {
        fill: #41550a;
      }
    </style>
  </defs>
  <path class="st0" d="M208,216.7H41.7c-21.7,0-39.3-17.6-39.3-39.3v-105c0-21.7,17.6-39.3,39.3-39.3h166.3c21.7,0,39.3,17.6,39.3,39.3v105c0,21.7-17.6,39.3-39.3,39.3h0ZM41.7,44.5c-15.3,0-27.8,12.5-27.8,27.8v105c0,15.3,12.5,27.8,27.8,27.8h166.3c15.3,0,27.8-12.5,27.8-27.8v-105c0-15.3-12.5-27.8-27.8-27.8,0,0-166.3,0-166.3,0Z"/>
  <path class="st0" d="M32.4,72.9c29.5,28.7,58.8,57.4,88.3,85.9,5.5,5.3,13.9-3.1,8.4-8.4-29.5-28.7-58.8-57.4-88.3-85.9-5.5-5.3-13.9,3.1-8.4,8.4h0Z"/>
  <path class="st0" d="M129.1,158.9c29.5-28.7,58.8-57.4,88.3-85.9,5.5-5.3-2.9-13.8-8.4-8.4-29.5,28.7-58.8,57.4-88.3,85.9-5.5,5.3,2.9,13.8,8.4,8.4h0Z"/>
  <path class="st0" d="M216.9,179.2c-19.6-18.6-39.1-37.1-58.7-55.7-5.5-5.2-14,3.1-8.4,8.4,19.6,18.6,39.1,37.1,58.7,55.7,5.5,5.2,14-3.1,8.4-8.4h0Z"/>
  <path class="st0" d="M41.7,187.6c19.6-18.6,39.1-37.1,58.7-55.7,5.5-5.2-2.8-13.7-8.4-8.4-19.6,18.6-39.1,37.1-58.7,55.7-5.5,5.2,2.8,13.7,8.4,8.4h0Z"/>
</svg>