<?xml version="1.0" encoding="UTF-8"?>
<svg id="Layer_1" xmlns="http://www.w3.org/2000/svg" version="1.1" viewBox="0 0 250 250">
  <!-- Generator: Adobe Illustrator 29.1.0, SVG Export Plug-In . SVG Version: 2.1.0 Build 142)  -->
  <defs>
    <style>
      .st0 {
        fill: #41550a;
        fill-rule: evenodd;
      }
    </style>
  </defs>
  <path class="st0" d="M124.7,14C62.3,14,12,64.9,12,127.7s32.3,92.9,77.2,107.9c5.5,1.2,7.6-2.5,7.6-5.5v-21c-31.4,6.7-37.9-13.6-37.9-13.6-5.1-13.2-12.5-16.6-12.5-16.6-10.2-6.9.7-6.9.7-6.9,11.3.7,17.3,11.8,17.3,11.8,10.2,17.3,26.3,12.5,32.8,9.5.9-7.4,3.9-12.5,7.2-15.2-25-2.5-51.3-12.5-51.3-56.1s4.4-22.6,11.6-30.5c-1.2-2.8-5.1-14.6,1.2-30,0,0,9.5-3,31,11.8,9.2-2.5,18.7-3.7,28.2-3.7s19.2,1.4,28.2,3.7c21.5-14.8,31-11.8,31-11.8,6.2,15.7,2.3,27.3,1.2,30,7.4,7.9,11.6,18,11.6,30.5,0,43.7-26.3,53.4-51.5,56.1,4.2,3.5,7.6,10.4,7.6,21v31.2c0,3.7,2.1,6.7,7.6,5.5,44.8-15,77.2-57.5,77.2-107.9S187.3,14,124.9,14h-.2Z"/>
</svg>