<?xml version="1.0" encoding="UTF-8"?>
<svg id="Layer_1" xmlns="http://www.w3.org/2000/svg" version="1.1" viewBox="0 0 250 250">
  <!-- Generator: Adobe Illustrator 29.1.0, SVG Export Plug-In . SVG Version: 2.1.0 Build 142)  -->
  <defs>
    <style>
      .st0 {
        fill: #41550a;
      }
    </style>
  </defs>
  <path class="st0" d="M216.4,35.1v-16.4l11.9-9.3H99.5L21.7,76.9h51.7c0,1.3,0,2.4,0,3.8,0,12.6,4.3,23,13.1,31.2,8.7,8.3,19.4,12.4,32.1,12.4s5.9-.3,8.7-.6c-1.7,3.9-2.7,7.5-2.7,10.9,0,6,2.7,12.3,8.2,19.1-23.6,1.6-41,5.9-52,12.7-6.3,3.9-11.5,8.9-15.3,14.8-3.8,6-5.8,12.4-5.8,19.2s1.3,11,3.8,15.8c2.6,4.7,5.8,8.5,9.8,11.5,4,3,8.7,5.5,14,7.5,5.2,2,10.4,3.4,15.8,4.3,5.2.8,10.4,1.2,15.5,1.2,8.2,0,16.3-1,24.4-3.1,8.2-2.1,15.9-5.2,23-9.3s12.9-9.7,17.4-16.7c4.5-7.1,6.7-14.9,6.7-23.6s-1.3-12.6-4.1-18.1c-2.7-5.5-6-9.9-9.9-13.5-3.9-3.5-7.8-6.8-11.7-9.6s-7.2-5.9-9.9-8.9-4-6-4-9.1,1-5.9,3.1-8.6,4.7-5.4,7.6-8,6-5.4,8.9-8.5,5.5-7.1,7.6-12.1c2.1-4.9,3.1-10.4,3.1-16.8s-1.5-14.8-4.5-20.1c-.4-.6-.7-1.1-1.1-1.8l34.3-28.1v10.3c-4.5.5-3.9,3.2-3.9,6.4v77.5c0,3.6,2.9,6.5,6.5,6.5h2.4c3.6,0,6.5-2.9,6.5-6.5V41.5c0-3.2.5-5.9-3.9-6.4h0-.3ZM151.8,169c.6.5,2.2,1.6,4.7,3.6s4.1,3.4,5,4.5c.8,1,2.2,2.6,3.8,4.5,1.6,2,2.8,3.8,3.4,5.2.6,1.5,1.2,3.3,1.8,5.4s.9,4.2.9,6.4c0,10.3-3.9,17.9-11.9,22.8-7.9,4.9-17.3,7.4-28.2,7.4s-11-.6-16.3-1.9-10.4-3.2-15.3-5.8c-4.9-2.6-8.8-6.1-11.7-10.7-2.9-4.6-4.5-9.9-4.5-15.8s1.6-11.6,5-16.2,7.8-8.1,13.3-10.4,11-4,16.6-5,11.4-1.6,17.1-1.6,4.8.2,6.2.5c.3,0,1.8,1.3,4.7,3.4s4.6,3.4,5.3,3.8h0ZM149.7,108.5c-4.5,5.4-10.6,8-18.7,8s-13.5-2.9-18.9-8.6-9.3-12.2-11.6-19.5-3.6-14.5-3.6-21.4,2.2-15.3,6.5-21.1c4.3-5.8,10.5-8.7,18.6-8.7s13.5,3,18.9,9.2c5.5,6,9.4,12.9,11.7,20.5,2.4,7.5,3.6,14.8,3.6,21.7s-2.2,14.8-6.7,20.2h0l.2-.2Z"/>
</svg>