<?xml version="1.0" encoding="UTF-8"?>
<svg id="Layer_1" xmlns="http://www.w3.org/2000/svg" version="1.1" viewBox="0 0 250 250">
  <!-- Generator: Adobe Illustrator 29.1.0, SVG Export Plug-In . SVG Version: 2.1.0 Build 142)  -->
  <defs>
    <style>
      .st0 {
        fill: #41550a;
      }
    </style>
  </defs>
  <path class="st0" d="M224.2,118.8c-3-2.6-30.2-25.4-49.1-25.4s-34.9,20.5-37.6,31.4l-.4,1.7c-3.5,2-6.8,4.4-9.9,7.1-3.2,2.9-6.1,6.1-8.6,9.7-.2-.9-.4-1.9-.6-2.8-2.8-10.2-7.2-19.1-12-27.8-3.9-6.9-8.2-13.5-12.7-19.9l.2-.4c4.7-9.5,8.8-32.4-9-51.2-14.6-15.3-52.6-19.6-56.9-20.1l-7.6-.8.8,7.8c.4,4.5,4.6,44.3,19.1,59.5,8.1,8.5,18.2,13,29.3,13s16.6-3,20-4.6c4,6.5,7.7,13.1,11.1,19.9,4.2,8.6,7.9,17.6,9.9,26.6.4,2.2-2.7,87.6-2.7,87.6h15.6s-2.4-70.5-2-72.2c1.8-7.1,5.8-13.7,11-19.1,2.2-2.3,4.7-4.4,7.3-6.2,4.6,9.2,15.8,21.6,35.8,21.6s46-22.8,49.1-25.4l5.8-5-5.8-5"/>
</svg>